#!OML:ASF I:\Actors\actors\Patient Classification 1\Patient 1\Session 1\Subject1.ASF
:FULLY-SPECIFIED
:DEGREES
1458
root 0.848645 17.463 9.47882 8.39225 -0.379617 -8.24725
lowerback 0.446891 2.88437 1.40672
upperback -10.2464 4.3734 3.76821
thorax -11.4274 2.23958 2.82421
lowerneck -6.40263 2.80351 3.39045
upperneck 35.3665 0.572946 9.0902
head 12.8848 1.92104 3.05463
rclavicle -7.97623e-015 -3.67752e-014
rhumerus -33.4082 46.7812 -110.696
rradius 100.899
rwrist 23.6626
rhand -3.25123 -34.7856
rfingers 7.12502
rthumb 22.4728 -783.498
lclavicle -7.97623e-015 -3.67752e-014
lhumerus -53.6699 -9.84256 103.391
lradius 115.287
lwrist 76.051
lhand -25.2116 10.9521
lfingers 7.12502
lthumb 1.30719 40.9279
rfemur -0.756574 25.1068 24.9522
rtibia 1.62622
rfoot -14.4908 -29.365
rtoes 4.17742
lfemur 8.96448 -46.9882 -15.4255
ltibia -4.40675
lfoot -24.0366 53.0904
ltoes 9.56173
1459
root 0.858888 17.4642 9.4667 8.51361 -0.43839 -8.17925
lowerback 0.724805 2.91015 1.68889
upperback -10.3147 4.4412 3.74234
thorax -11.655 2.24244 2.61887
lowerneck -6.46064 3.04652 3.4188
upperneck 34.7854 1.54068 7.3608
head 12.608 2.1248 2.45469
rclavicle -2.10463e-014 -6.75868e-015
rhumerus -33.4355 47.1476 -110.663
rradius 100.954
rwrist 23.7754
rhand -3.24968 -34.807
rfingers 7.12502
rthumb 22.4743 -783.519
lclavicle -2.10463e-014 -6.75868e-015
lhumerus -53.5563 -9.36389 103.439
lradius 115.374
lwrist 75.749
lhand -25.1112 11.3579
lfingers 7.12502
lthumb 1.40417 41.333
rfemur -0.913124 25.3399 24.7757
rtibia 1.58699
rfoot -14.5025 -29.5299
rtoes 4.24397
lfemur 8.70588 -46.9007 -15.3271
ltibia -4.4466
lfoot -23.8958 53.1117
ltoes 9.36052
1460
root 0.867468 17.4643 9.45497 8.65785 -0.488398 -8.13749
lowerback 0.998273 2.90789 1.97856
upperback -10.3826 4.47417 3.72709
thorax -11.879 2.22735 2.42479
lowerneck -6.58805 3.29899 3.30389
upperneck 34.1822 2.46304 5.82588
head 12.3611 2.31879 1.96698
rclavicle -2.96189e-014 -3.00165e-014
rhumerus -33.4374 47.5432 -110.667
rradius 101.04
rwrist 23.9259
rhand -3.16999 -34.8448
rfingers 7.12502
rthumb 22.5508 -783.548
lclavicle -2.96189e-014 -3.00165e-014
lhumerus -53.5325 -8.83446 103.464
lradius 115.509
lwrist 75.4966
lhand -24.7025 11.5895
lfingers 7.12502
lthumb 1.79885 41.5617
rfemur -1.11733 25.5488 24.6109
rtibia 1.5775
rfoot -14.5581 -29.6585
rtoes 4.31763
lfemur 8.42318 -46.8862 -15.1887
ltibia -4.45027
lfoot -23.7045 53.1692
ltoes 9.06604
1461
root 0.872758 17.4651 9.44521 8.8013 -0.529152 -8.05527
lowerback 1.19503 2.85352 2.11537
upperback -10.4136 4.42545 3.76091
thorax -12.0273 2.19064 2.38208
lowerneck -6.75056 3.5716 3.28075
upperneck 33.58 3.41745 4.16117
head 12.1523 2.52775 1.43231
rclavicle -1.73937e-015 1.25234e-014
rhumerus -33.4259 48.0429 -110.692
rradius 101.073
rwrist 23.976
rhand -3.19044 -34.9403
rfingers 7.12502
rthumb 22.5312 -783.646
lclavicle -1.73937e-015 1.25234e-014
lhumerus -53.5037 -8.22656 103.492
lradius 115.664
lwrist 75.2703
lhand -24.4278 11.5565
lfingers 7.12502
lthumb 2.06419 41.5263
rfemur -1.30772 25.821 24.4155
rtibia 1.56237
rfoot -14.6621 -29.8408
rtoes 4.61168
lfemur 8.14398 -46.8801 -15.085
ltibia -4.46569
lfoot -23.3372 53.2537
ltoes 8.59346
1462
root 0.876224 17.4667 9.43807 8.89677 -0.527727 -7.98353
lowerback 1.36732 2.81583 2.30726
upperback -10.4144 4.39569 3.7414
thorax -12.1165 2.15433 2.25016
lowerneck -6.9444 3.81498 3.38256
upperneck 32.9598 4.26841 2.5525
head 11.9718 2.71744 0.897964
rclavicle -1.7344e-014 4.85035e-014
rhumerus -33.3929 48.4005 -110.712
rradius 101.064
rwrist 23.9851
rhand -3.28025 -34.9889
rfingers 7.12502
rthumb 22.445 -783.705
lclavicle -1.7344e-014 4.85035e-014
lhumerus -53.5103 -7.82116 103.523
lradius 115.808
lwrist 75.1202
lhand -24.5161 11.4422
lfingers 7.12502
lthumb 1.97894 41.4128
rfemur -1.38398 26.0885 24.2849
rtibia 1.46719
rfoot -14.6877 -30.0951
rtoes 4.86376
lfemur 7.99016 -46.9932 -15.0654
ltibia -4.49366
lfoot -23.1223 53.4085
ltoes 8.22494
1463
root 0.879322 17.4677 9.43149 8.97065 -0.509579 -7.92525
lowerback 1.5856 2.80694 2.57886
upperback -10.4353 4.40978 3.66046
thorax -12.2474 2.12668 1.99997
lowerneck -7.02271 4.02571 3.66819
upperneck 32.2257 5.02754 0.930379
head 11.7503 2.89085 0.32165
rclavicle 2.96189e-014 1.2921e-014
rhumerus -33.4311 48.5654 -110.81
rradius 101.043
rwrist 24.0473
rhand -3.39001 -34.9343
rfingers 7.12502
rthumb 22.3396 -783.663
lclavicle 2.96189e-014 1.2921e-014
lhumerus -53.6138 -7.57482 103.553
lradius 115.939
lwrist 75.0127
lhand -24.6725 11.4355
lfingers 7.12502
lthumb 1.82789 41.4074
rfemur -1.44583 26.2354 24.1749
rtibia 1.38277
rfoot -14.6582 -30.2658
rtoes 4.91135
lfemur 7.93531 -47.3008 -15.1313
ltibia -4.49226
lfoot -23.2588 53.6657
ltoes 8.32327
1464
root 0.881431 17.4694 9.42931 9.0989 -0.413083 -8.08613
lowerback 1.65501 2.75475 2.97671
upperback -10.4567 4.38036 3.70606
thorax -12.2903 2.07492 1.82984
lowerneck -6.99721 4.27102 4.10179
upperneck 31.4197 5.83698 -0.840268
head 11.5135 3.09332 -0.321197
rclavicle 2.79292e-014 1.96797e-014
rhumerus -33.5814 48.7521 -110.98
rradius 100.99
rwrist 24.1791
rhand -3.52259 -34.8176
rfingers 7.12502
rthumb 22.2123 -783.561
lclavicle 2.79292e-014 1.96797e-014
lhumerus -53.7135 -7.19623 103.615
lradius 116.04
lwrist 74.8799
lhand -24.5918 11.3505
lfingers 7.12502
lthumb 1.90583 41.3217
rfemur -1.56678 26.2281 24.3128
rtibia 1.34491
rfoot -14.6685 -30.3182
rtoes 4.94782
lfemur 7.77717 -47.4872 -14.8315
ltibia -4.53704
lfoot -23.251 53.8078
ltoes 8.38232
